<svg width="19" height="19" xmlns="http://www.w3.org/2000/svg">

 <g>
  <title>background</title>
  <rect fill="none" id="canvas_background" height="21" width="21" y="-1" x="-1"/>
 </g>
 <g>
  <title>Layer 1</title>
  <g stroke="null" id="svg_1">
   <g stroke="null" id="svg_2">
    <path stroke="null" id="svg_3" fill="#030104" class="active-path" d="m18.03095,18.52011c-2.29396,-0.92647 -4.33051,-2.92048 -4.66786,-5.49951c-0.01871,-0.14338 0.09298,-0.33972 0.23813,-0.43588c0.08731,-0.05816 0.17519,-0.11574 0.26477,-0.17504c0.45981,-0.29021 0.88901,-0.68521 1.32784,-1.05315c0.41219,-0.41803 0.83515,-0.82052 1.19177,-1.29786c1.48943,-1.99631 2.56894,-4.61219 2.41982,-7.17164c-0.03459,-0.59078 -0.1338,-1.17867 -0.30957,-1.75505c-0.03288,-0.12034 -0.0618,-0.22514 -0.08618,-0.31266c-0.04763,-0.17274 -0.13777,-0.1785 -0.20184,-0.01382c-0.03232,0.08349 -0.07087,0.18368 -0.11623,0.29884c-0.0652,0.18656 -0.16612,0.40652 -0.30049,0.64778c-0.8136,1.45333 -3.08148,4.32199 -5.06247,3.78937c-0.47966,-0.12898 -0.78412,-0.88213 -1.07724,-1.25583c-0.86349,-1.10151 -1.9311,-2.05792 -3.12683,-2.77307c-2.11933,-1.26735 -5.02958,-1.9347 -7.4375,-1.17982c-0.1185,0.0334 -0.22168,0.06276 -0.30786,0.08752c-0.19447,0.05528 -0.3073,0.08695 -0.3073,0.08695s0.21375,0.08579 0.58795,0.23608c0.1837,0.06737 0.40028,0.16929 0.63784,0.30575c1.03812,0.59884 1.94414,1.32665 2.64038,2.3274c0.58965,0.84816 1.78425,2.60609 0.59135,3.35867c-2.83031,1.78557 -5.06587,5.4615 -4.92243,8.92266c0.0085,0.20671 0.01701,0.40594 0.02495,0.59768c0.0068,0.37485 0.0635,0.71572 0.11226,1.01054c0.03912,0.29366 0.09355,0.54298 0.15592,0.74682c0.03288,0.12034 0.0618,0.22514 0.08618,0.31266c0.04763,0.17332 0.13777,0.17908 0.20184,0.01382c0.03232,-0.08407 0.07144,-0.18368 0.11623,-0.29884c0.06634,-0.18656 0.16669,-0.40709 0.30163,-0.64778c0.1253,-0.24184 0.26137,-0.50728 0.45584,-0.77388c0.63387,-0.86946 1.40268,-1.65486 2.3206,-2.21339c0.48476,-0.29596 2.19984,-1.26562 2.65058,-0.56371c1.75534,2.73507 4.43597,4.62544 7.62063,5.15633c0.23926,0.03973 0.47172,0.07082 0.70361,0.07658c0.21772,0.01209 0.4292,0.02361 0.6333,0.03512c0.20354,-0.00921 0.39971,-0.0167 0.58908,-0.02534c0.36853,-0.00749 0.70418,-0.06449 0.99446,-0.11401c0.28915,-0.03915 0.53465,-0.09501 0.73536,-0.15835c0.1185,-0.0334 0.22225,-0.06219 0.30786,-0.08695c0.16839,-0.04837 0.17463,-0.13934 0.01361,-0.20499zm-8.63494,-7.07548c-0.98596,0 -1.78425,-0.78943 -1.83358,-1.77808c-0.0017,-0.03167 -0.00907,-0.06219 -0.00907,-0.09443c0,-1.03414 0.82551,-1.87194 1.84265,-1.87194c0.98653,0 1.78482,0.78885 1.83471,1.77808c0.00113,0.03167 0.00907,0.06219 0.00907,0.09443c0,1.03414 -0.82494,1.87194 -1.84378,1.87194z"/>
   </g>
  </g>
 </g>
</svg>